<?xml version="1.0" encoding="utf-8"?>
<!-- Generator: Adobe Illustrator 16.0.0, SVG Export Plug-In . SVG Version: 6.00 Build 0)  -->
<!DOCTYPE svg PUBLIC "-//W3C//DTD SVG 1.1//EN" "http://www.w3.org/Graphics/SVG/1.1/DTD/svg11.dtd">
<svg version="1.1" id="Layer_1" xmlns="http://www.w3.org/2000/svg" xmlns:xlink="http://www.w3.org/1999/xlink" x="0px" y="0px"
	 width="160px" height="24px" viewBox="0 0 160 24" enable-background="new 0 0 160 24" xml:space="preserve">
<g>
	<path fill="#FFFFFF" d="M78.536,22.649c0,0.695-0.563,1.26-1.26,1.26H41.992c-0.696,0-1.26-0.564-1.26-1.26V1.542
		c0-0.696,0.564-1.26,1.26-1.26h35.284c0.696,0,1.26,0.564,1.26,1.26V22.649z"/>
	<g>
		<g>
			<polygon fill="#0066B2" points="58.129,15.645 56.283,15.645 57.437,8.551 59.284,8.551 			"/>
			<path fill="#0066B2" d="M54.729,8.551l-1.761,4.878l-0.208-1.05v0l-0.622-3.19c0,0-0.075-0.639-0.876-0.639h-2.91l-0.034,0.121
				c0,0,0.89,0.185,1.932,0.811l1.604,6.162h1.924l2.938-7.093H54.729z"/>
			<path fill="#0066B2" d="M69.255,15.645h1.695l-1.479-7.093h-1.483c-0.686,0-0.854,0.529-0.854,0.529l-2.753,6.564h1.925
				l0.385-1.054h2.348L69.255,15.645z M67.223,13.136l0.97-2.655l0.547,2.655H67.223z"/>
			<path fill="#0066B2" d="M64.524,10.257l0.264-1.523c0,0-0.813-0.309-1.661-0.309c-0.916,0-3.092,0.4-3.092,2.348
				c0,1.833,2.554,1.855,2.554,2.817c0,0.963-2.291,0.791-3.047,0.185l-0.274,1.592c0,0,0.824,0.4,2.084,0.4
				c1.259,0,3.162-0.652,3.162-2.429c0-1.844-2.577-2.016-2.577-2.817C61.937,9.718,63.735,9.822,64.524,10.257z"/>
		</g>
		<path fill="#F9A533" d="M52.76,12.38l-0.622-3.19c0,0-0.075-0.639-0.876-0.639h-2.91l-0.034,0.121c0,0,1.399,0.29,2.741,1.375
			C52.342,11.086,52.76,12.38,52.76,12.38z"/>
	</g>
</g>
<g>
	<path fill="#FFFFFF" d="M37.805,22.648c0,0.697-0.564,1.261-1.261,1.261H1.259C0.564,23.909,0,23.346,0,22.648V1.542
		c0-0.696,0.564-1.26,1.259-1.26h35.285c0.696,0,1.261,0.563,1.261,1.26V22.648z"/>
	<g>
		<path fill="#336699" d="M26.183,10.818c-0.238-0.132-0.612-0.2-1.124-0.2c-0.253,0-0.507,0.02-0.764,0.06
			c-0.187,0.029-0.205,0.034-0.321,0.059c-0.239,0.053-0.276,0.292-0.276,0.292l-0.077,0.317c-0.043,0.201,0.071,0.192,0.122,0.177
			c0.105-0.032,0.162-0.063,0.376-0.111c0.204-0.046,0.418-0.081,0.589-0.079c0.253,0,0.443,0.027,0.572,0.08
			c0.126,0.056,0.189,0.15,0.189,0.286c0.001,0.032,0.001,0.063-0.01,0.089c-0.011,0.025-0.03,0.049-0.091,0.057
			c-0.359,0.021-0.617,0.055-0.93,0.1c-0.306,0.043-0.573,0.117-0.798,0.219c-0.238,0.106-0.418,0.249-0.541,0.428
			c-0.12,0.181-0.181,0.4-0.181,0.658c0,0.243,0.087,0.441,0.257,0.597c0.172,0.151,0.395,0.228,0.664,0.228
			c0.169-0.001,0.301-0.014,0.396-0.037c0.092-0.023,0.194-0.058,0.302-0.104c0.081-0.034,0.168-0.083,0.26-0.144
			c0.092-0.062,0.155-0.105,0.237-0.159l0.003,0.005l-0.023,0.102c-0.001,0.001-0.001,0.002-0.001,0.002v0.002
			c-0.026,0.123,0.048,0.224,0.168,0.236l0.002,0.002h0.011l0.001,0.001c0.079,0,0.354,0,0.483-0.001h0.091
			c0.006,0,0.006-0.002,0.008-0.003c0.124-0.015,0.241-0.116,0.27-0.237l0.461-1.982c0.009-0.047,0.018-0.1,0.022-0.164
			c0.006-0.062,0.014-0.114,0.012-0.151C26.541,11.16,26.421,10.952,26.183,10.818z M25.068,13.183
			c-0.078,0.049-0.16,0.092-0.246,0.127c-0.117,0.047-0.227,0.071-0.328,0.071c-0.157,0-0.277-0.021-0.359-0.069
			c-0.081-0.045-0.123-0.122-0.122-0.234c0-0.129,0.029-0.229,0.091-0.308c0.063-0.075,0.154-0.136,0.27-0.181
			c0.113-0.039,0.253-0.071,0.414-0.093c0.145-0.018,0.428-0.051,0.464-0.051s0.061-0.02,0.044,0.076
			c-0.006,0.042-0.089,0.379-0.127,0.531C25.157,13.098,25.096,13.164,25.068,13.183z"/>
		<path fill="#003366" d="M18.275,10.662c-0.134,0-0.312,0.109-0.395,0.241c0,0-0.903,1.546-0.991,1.701
			c-0.048,0.083-0.097,0.03-0.105-0.001c-0.007-0.038-0.279-1.689-0.279-1.689c-0.031-0.133-0.17-0.248-0.344-0.248L15.6,10.667
			c-0.136,0-0.22,0.109-0.19,0.24c0,0,0.43,2.437,0.514,3.01c0.042,0.316-0.004,0.373-0.004,0.373l-0.557,0.972
			c-0.082,0.131-0.037,0.239,0.098,0.239l0.651-0.001c0.135,0,0.313-0.106,0.395-0.238l2.506-4.241c0,0,0.24-0.362,0.019-0.359
			C18.88,10.665,18.275,10.662,18.275,10.662"/>
		<path fill="#003366" d="M10.361,11.523c-0.189,0.139-0.452,0.209-0.793,0.209H9.414c-0.136,0-0.222-0.108-0.192-0.241l0.19-0.815
			c0.028-0.131,0.164-0.241,0.3-0.239l0.206-0.002c0.241,0,0.423,0.041,0.548,0.123c0.121,0.079,0.183,0.206,0.179,0.375
			C10.648,11.188,10.552,11.385,10.361,11.523 M11.721,10.266c-0.078-0.153-0.195-0.277-0.345-0.37
			c-0.155-0.097-0.336-0.163-0.546-0.202c-0.211-0.038-0.459-0.057-0.743-0.06L8.773,9.636c-0.137,0.001-0.27,0.108-0.302,0.239
			l-0.886,3.853c-0.03,0.131,0.055,0.239,0.191,0.239h0.629c0.135,0,0.271-0.105,0.301-0.239l0.216-0.935
			c0.029-0.132,0.164-0.239,0.3-0.239h0.18c0.77-0.001,1.366-0.159,1.796-0.474c0.428-0.314,0.642-0.731,0.641-1.247
			C11.842,10.606,11.802,10.417,11.721,10.266"/>
		<path fill="#336699" d="M21.788,11.54c-0.188,0.137-0.453,0.206-0.794,0.206h-0.156c-0.136,0.001-0.223-0.109-0.191-0.24
			l0.189-0.816c0.028-0.129,0.165-0.24,0.299-0.238l0.207-0.002c0.242,0.002,0.422,0.042,0.547,0.122
			c0.123,0.081,0.183,0.208,0.183,0.375C22.072,11.203,21.978,11.399,21.788,11.54 M23.146,10.279
			c-0.078-0.152-0.197-0.275-0.347-0.371c-0.153-0.096-0.336-0.162-0.548-0.2c-0.207-0.037-0.457-0.058-0.74-0.059L20.196,9.65
			c-0.136,0.002-0.268,0.108-0.3,0.24l-0.885,3.851c-0.032,0.132,0.056,0.241,0.189,0.24l0.632-0.001
			c0.134,0.001,0.27-0.107,0.302-0.239l0.213-0.934c0.03-0.131,0.167-0.241,0.302-0.239h0.18c0.771,0,1.369-0.159,1.796-0.474
			c0.427-0.317,0.642-0.732,0.642-1.249C23.266,10.621,23.227,10.43,23.146,10.279"/>
		<path fill="#003366" d="M14.753,10.815c-0.238-0.133-0.612-0.2-1.124-0.2c-0.253,0-0.507,0.02-0.763,0.06
			c-0.187,0.029-0.206,0.034-0.323,0.059c-0.238,0.053-0.276,0.292-0.276,0.292l-0.077,0.316c-0.044,0.202,0.072,0.193,0.124,0.178
			c0.104-0.031,0.16-0.062,0.374-0.111c0.202-0.046,0.418-0.081,0.59-0.079c0.252,0,0.443,0.027,0.571,0.08
			c0.126,0.056,0.189,0.15,0.189,0.286c0.001,0.032,0.001,0.063-0.01,0.089c-0.01,0.024-0.03,0.048-0.09,0.057
			c-0.359,0.021-0.617,0.055-0.929,0.1c-0.306,0.042-0.574,0.117-0.799,0.219c-0.238,0.107-0.417,0.249-0.54,0.428
			c-0.121,0.181-0.181,0.4-0.181,0.658c0,0.243,0.087,0.441,0.257,0.597c0.172,0.151,0.395,0.228,0.664,0.228
			c0.169-0.002,0.3-0.015,0.396-0.038c0.093-0.023,0.194-0.057,0.302-0.103c0.081-0.034,0.168-0.083,0.26-0.144
			c0.091-0.062,0.156-0.105,0.237-0.159l0.003,0.005l-0.023,0.102c0,0.001,0,0.001,0,0.002v0.002
			c-0.027,0.123,0.047,0.224,0.168,0.235l0.002,0.003h0.01l0.001,0.001c0.079,0,0.355,0,0.483-0.001h0.09
			c0.006,0,0.006-0.002,0.009-0.003c0.124-0.016,0.241-0.116,0.269-0.237l0.46-1.983c0.01-0.046,0.02-0.1,0.023-0.162
			c0.006-0.063,0.013-0.114,0.011-0.151C15.112,11.157,14.993,10.95,14.753,10.815z M13.642,13.18
			c-0.079,0.049-0.161,0.092-0.248,0.127c-0.116,0.047-0.227,0.071-0.329,0.071c-0.157,0-0.278-0.021-0.359-0.069
			c-0.081-0.045-0.123-0.123-0.123-0.234c0-0.129,0.03-0.229,0.092-0.308c0.063-0.076,0.153-0.137,0.268-0.181
			c0.114-0.04,0.253-0.071,0.416-0.094c0.143-0.018,0.427-0.05,0.463-0.051c0.036,0,0.061-0.021,0.044,0.076
			c-0.007,0.042-0.089,0.379-0.126,0.531C13.729,13.095,13.668,13.162,13.642,13.18z"/>
		<g>
			<g>
				<path fill="#336699" d="M28.542,9.92c0.027-0.13-0.055-0.238-0.19-0.238h-0.563l0,0h-0.001c-0.119,0-0.229,0.089-0.275,0.2
					c-0.007,0.014-0.022,0.024-0.026,0.039c0,0-0.014,0.062-0.036,0.167l-0.768,3.478c-0.021,0.093-0.036,0.157-0.04,0.172
					l0.003,0.004c-0.025,0.118,0.048,0.207,0.16,0.224l0.009,0.013h0.584c0.134,0,0.271-0.107,0.302-0.24l0.844-3.817L28.542,9.92z"
					/>
			</g>
		</g>
		<g>
			<path fill="#336699" d="M29.207,10.458c-0.02,0.005-0.041,0.009-0.063,0.012c-0.023,0.003-0.043,0.005-0.062,0.005
				c-0.062,0-0.11-0.017-0.143-0.05c-0.032-0.034-0.048-0.087-0.048-0.161V9.938h-0.07V9.852h0.07V9.676h0.102v0.176h0.214v0.087
				h-0.214v0.278c0,0.032,0.002,0.058,0.002,0.076c0.002,0.018,0.008,0.035,0.017,0.051c0.009,0.015,0.019,0.025,0.033,0.032
				c0.014,0.006,0.035,0.01,0.063,0.01c0.018,0,0.035-0.003,0.054-0.007c0.019-0.005,0.031-0.01,0.039-0.013h0.006V10.458z"/>
			<path fill="#336699" d="M30.226,10.464h-0.104v-0.35c0-0.025-0.001-0.051-0.003-0.076c-0.003-0.024-0.008-0.043-0.016-0.059
				c-0.009-0.015-0.021-0.027-0.036-0.035c-0.017-0.008-0.039-0.012-0.068-0.012s-0.058,0.007-0.086,0.021
				c-0.029,0.014-0.059,0.033-0.087,0.055c0.001,0.008,0.002,0.018,0.002,0.029c0.001,0.011,0.002,0.021,0.002,0.033v0.393h-0.103
				v-0.35c0-0.026-0.002-0.053-0.005-0.076c-0.002-0.025-0.008-0.044-0.016-0.059c-0.007-0.016-0.02-0.027-0.035-0.036
				c-0.016-0.007-0.038-0.011-0.068-0.011c-0.028,0-0.057,0.007-0.085,0.021s-0.056,0.031-0.085,0.053v0.458h-0.102V9.852h0.102
				v0.068c0.033-0.026,0.065-0.048,0.098-0.063c0.03-0.015,0.064-0.022,0.103-0.022c0.041,0,0.076,0.008,0.105,0.026
				c0.028,0.017,0.05,0.042,0.064,0.073c0.042-0.035,0.08-0.061,0.114-0.076c0.035-0.016,0.07-0.023,0.11-0.023
				c0.067,0,0.117,0.021,0.149,0.062c0.032,0.041,0.048,0.098,0.048,0.17V10.464z"/>
		</g>
	</g>
</g>
<g>
	<path fill="#FFFFFF" d="M119.269,22.649c0,0.696-0.564,1.26-1.261,1.26H82.724c-0.696,0-1.261-0.563-1.261-1.26V1.542
		c0-0.696,0.564-1.26,1.261-1.26h35.284c0.696,0,1.261,0.564,1.261,1.26V22.649z"/>
	<g>
		<polygon fill-rule="evenodd" clip-rule="evenodd" fill="#FBB231" points="104.903,18.878 105.252,18.869 105.598,18.844 
			105.937,18.8 106.272,18.741 106.601,18.665 106.923,18.573 107.239,18.466 107.548,18.344 107.85,18.208 108.143,18.06 
			108.426,17.895 108.703,17.718 108.969,17.528 109.225,17.326 109.472,17.115 109.708,16.889 109.934,16.652 110.146,16.405 
			110.348,16.149 110.538,15.884 110.714,15.606 110.879,15.323 111.026,15.03 111.165,14.729 111.285,14.418 111.394,14.103 
			111.484,13.781 111.561,13.453 111.62,13.117 111.663,12.778 111.688,12.433 111.697,12.083 111.688,11.735 111.663,11.392 
			111.62,11.054 111.561,10.722 111.484,10.395 111.394,10.074 111.285,9.759 111.165,9.452 111.026,9.153 110.879,8.859 
			110.714,8.578 110.538,8.302 110.348,8.036 110.146,7.782 109.934,7.535 109.708,7.299 109.472,7.075 109.225,6.863 
			108.969,6.661 108.703,6.471 108.426,6.295 108.143,6.133 107.85,5.984 107.548,5.846 107.239,5.726 106.923,5.618 106.601,5.526 
			106.272,5.451 105.937,5.392 105.598,5.348 105.252,5.323 104.903,5.313 104.555,5.323 104.209,5.348 103.871,5.392 
			103.537,5.451 103.21,5.526 102.887,5.618 102.573,5.726 102.265,5.846 101.965,5.984 101.675,6.133 101.391,6.295 101.116,6.471 
			100.852,6.661 100.595,6.863 100.35,7.075 100.113,7.299 99.89,7.535 99.677,7.782 99.475,8.036 99.289,8.302 99.111,8.578 
			98.949,8.859 98.799,9.153 98.664,9.452 98.542,9.759 98.438,10.074 98.346,10.395 98.27,10.722 98.211,11.054 98.167,11.392 
			98.142,11.735 98.133,12.083 98.142,12.433 98.167,12.778 98.211,13.117 98.27,13.453 98.346,13.781 98.438,14.103 98.542,14.418 
			98.664,14.729 98.799,15.03 98.949,15.323 99.111,15.606 99.289,15.884 99.475,16.149 99.677,16.405 99.89,16.652 100.113,16.889 
			100.35,17.115 100.595,17.326 100.852,17.528 101.116,17.718 101.391,17.895 101.675,18.06 101.965,18.208 102.265,18.344 
			102.573,18.466 102.887,18.573 103.21,18.665 103.537,18.741 103.871,18.8 104.209,18.844 104.555,18.869 104.903,18.878 
			104.903,18.878 		"/>
		<polygon fill-rule="evenodd" clip-rule="evenodd" fill="#EC1C2E" points="95.829,18.878 96.176,18.869 96.521,18.844 96.86,18.8 
			97.195,18.741 97.521,18.665 97.844,18.573 98.158,18.466 98.467,18.344 98.766,18.208 99.057,18.06 99.341,17.895 99.615,17.718 
			99.881,17.528 100.137,17.326 100.381,17.115 100.617,16.889 100.842,16.652 101.055,16.405 101.256,16.149 101.443,15.884 
			101.619,15.606 101.782,15.323 101.933,15.03 102.067,14.729 102.189,14.418 102.294,14.103 102.386,13.781 102.461,13.453 
			102.521,13.117 102.564,12.778 102.589,12.433 102.599,12.083 102.589,11.735 102.564,11.392 102.521,11.054 102.461,10.722 
			102.386,10.395 102.294,10.074 102.189,9.759 102.067,9.452 101.933,9.153 101.782,8.859 101.619,8.578 101.443,8.302 
			101.256,8.036 101.055,7.782 100.842,7.535 100.617,7.299 100.381,7.075 100.137,6.863 99.881,6.661 99.615,6.471 99.341,6.295 
			99.057,6.133 98.766,5.984 98.467,5.846 98.158,5.726 97.844,5.618 97.521,5.526 97.195,5.451 96.86,5.392 96.521,5.348 
			96.176,5.323 95.829,5.313 95.479,5.323 95.134,5.348 94.795,5.392 94.459,5.451 94.131,5.526 93.809,5.618 93.493,5.726 
			93.184,5.846 92.883,5.984 92.59,6.133 92.306,6.295 92.029,6.471 91.763,6.661 91.507,6.863 91.26,7.075 91.024,7.299 
			90.798,7.535 90.585,7.782 90.384,8.036 90.194,8.302 90.018,8.578 89.854,8.859 89.704,9.153 89.567,9.452 89.445,9.759 
			89.338,10.074 89.246,10.395 89.172,10.722 89.111,11.054 89.068,11.392 89.043,11.735 89.033,12.083 89.043,12.433 
			89.068,12.778 89.111,13.117 89.172,13.453 89.246,13.781 89.338,14.103 89.445,14.418 89.567,14.729 89.704,15.03 89.854,15.323 
			90.018,15.606 90.194,15.884 90.384,16.149 90.585,16.405 90.798,16.652 91.024,16.889 91.26,17.115 91.507,17.326 91.763,17.528 
			92.029,17.718 92.306,17.895 92.59,18.06 92.883,18.208 93.184,18.344 93.493,18.466 93.809,18.573 94.131,18.665 94.459,18.741 
			94.795,18.8 95.134,18.844 95.479,18.869 95.829,18.878 95.829,18.878 		"/>
		<polygon fill-rule="evenodd" clip-rule="evenodd" fill="#FBB231" points="99.572,7.915 103.175,7.915 103.175,7.546 99.883,7.546 
			99.572,7.915 99.572,7.915 		"/>
		<polygon fill-rule="evenodd" clip-rule="evenodd" fill="#FBB231" points="99.031,8.733 103.175,8.733 103.175,8.365 99.249,8.365 
			99.031,8.733 99.031,8.733 		"/>
		<polygon fill-rule="evenodd" clip-rule="evenodd" fill="#FBB231" points="98.629,9.551 103.175,9.551 103.175,9.182 98.789,9.182 
			98.629,9.551 98.629,9.551 		"/>
		<polygon fill-rule="evenodd" clip-rule="evenodd" fill="#FBB231" points="98.352,10.37 103.175,10.37 103.175,10.001 
			98.467,10.001 98.352,10.37 98.352,10.37 		"/>
		<polygon fill-rule="evenodd" clip-rule="evenodd" fill="#FBB231" points="98.512,14.328 103.187,14.328 103.187,13.96 
			98.398,13.96 98.512,14.328 98.512,14.328 		"/>
		<polygon fill-rule="evenodd" clip-rule="evenodd" fill="#FBB231" points="98.857,15.147 103.187,15.147 103.187,14.778 
			98.686,14.778 98.857,15.147 98.857,15.147 		"/>
		<polygon fill-rule="evenodd" clip-rule="evenodd" fill="#FBB231" points="99.343,15.963 103.187,15.963 103.187,15.595 
			99.111,15.595 99.343,15.963 99.343,15.963 		"/>
		<polygon fill-rule="evenodd" clip-rule="evenodd" fill="#FBB231" points="100.012,16.782 103.187,16.782 103.187,16.411 
			99.688,16.411 100.012,16.782 100.012,16.782 		"/>
		<polygon fill-rule="evenodd" clip-rule="evenodd" fill="#FBB231" points="98.189,11.187 103.175,11.187 103.175,10.818 
			98.261,10.818 98.189,11.187 98.189,11.187 		"/>
		<polygon fill-rule="evenodd" clip-rule="evenodd" fill="#FBB231" points="101.229,13.511 103.13,13.511 103.13,13.142 
			101.297,13.142 101.229,13.511 101.229,13.511 		"/>
		<polygon fill-rule="evenodd" clip-rule="evenodd" fill="#FBB231" points="101.379,12.693 103.13,12.693 103.13,12.323 
			101.447,12.323 101.379,12.693 101.379,12.693 		"/>
		<polygon fill-rule="evenodd" clip-rule="evenodd" fill="#FBB231" points="98.064,12.323 98.559,12.323 98.559,12.693 
			98.087,12.693 98.064,12.323 98.064,12.323 		"/>
		<polygon fill-rule="evenodd" clip-rule="evenodd" fill="#FFFFFF" points="97.142,11.877 97.11,11.875 97.078,11.871 
			97.049,11.866 97.019,11.861 96.99,11.857 96.961,11.852 96.932,11.848 96.899,11.843 96.867,11.838 96.83,11.836 96.789,11.833 
			96.746,11.832 96.698,11.832 96.646,11.833 96.586,11.838 96.52,11.843 96.475,11.85 96.431,11.857 96.392,11.871 96.357,11.884 
			96.325,11.9 96.296,11.918 96.272,11.942 96.252,11.962 96.238,11.987 96.227,12.012 96.223,12.04 96.223,12.067 96.229,12.097 
			96.238,12.126 96.256,12.157 96.279,12.187 96.325,12.229 96.381,12.264 96.443,12.293 96.513,12.318 96.586,12.342 
			96.661,12.367 96.737,12.395 96.811,12.424 96.879,12.463 96.943,12.511 97,12.568 97.049,12.639 97.085,12.726 97.107,12.829 
			97.117,12.953 97.107,13.097 97.092,13.204 97.064,13.299 97.027,13.386 96.982,13.461 96.93,13.527 96.869,13.584 96.806,13.635 
			96.735,13.678 96.661,13.712 96.586,13.742 96.508,13.765 96.429,13.783 96.35,13.797 96.275,13.804 96.199,13.809 96.129,13.811 
			96.029,13.811 95.938,13.809 95.859,13.809 95.783,13.807 95.715,13.804 95.652,13.799 95.598,13.794 95.545,13.788 
			95.497,13.783 95.453,13.774 95.41,13.767 95.371,13.756 95.332,13.746 95.296,13.732 95.259,13.72 95.22,13.704 95.322,13.2 
			95.344,13.204 95.369,13.212 95.4,13.22 95.44,13.229 95.48,13.238 95.527,13.248 95.577,13.259 95.632,13.269 95.689,13.277 
			95.748,13.287 95.811,13.293 95.875,13.301 95.94,13.303 96.008,13.305 96.073,13.305 96.141,13.303 96.206,13.289 96.259,13.271 
			96.301,13.246 96.332,13.214 96.355,13.182 96.373,13.144 96.385,13.107 96.395,13.074 96.398,13.007 96.378,12.95 96.339,12.904 
			96.282,12.865 96.213,12.831 96.133,12.797 96.044,12.765 95.955,12.729 95.863,12.688 95.776,12.639 95.696,12.58 95.623,12.509 
			95.565,12.421 95.524,12.318 95.504,12.195 95.506,12.049 95.518,11.96 95.533,11.875 95.557,11.797 95.584,11.724 95.62,11.656 
			95.661,11.596 95.71,11.539 95.768,11.489 95.834,11.445 95.906,11.408 95.988,11.375 96.08,11.349 96.184,11.328 96.296,11.312 
			96.419,11.303 96.555,11.301 96.639,11.301 96.717,11.303 96.787,11.306 96.852,11.308 96.909,11.312 96.961,11.317 
			97.007,11.321 97.049,11.326 97.088,11.331 97.119,11.337 97.148,11.342 97.177,11.347 97.199,11.351 97.22,11.354 97.24,11.358 
			97.258,11.361 97.142,11.877 97.142,11.877 		"/>
		<polyline fill="none" stroke="#FFFFFF" stroke-width="0.216" stroke-miterlimit="2.6131" points="97.142,11.877 97.142,11.877 
			97.11,11.875 97.078,11.871 97.049,11.866 97.019,11.861 96.99,11.857 96.961,11.852 96.932,11.848 96.899,11.843 96.867,11.838 
			96.83,11.836 96.789,11.833 96.746,11.832 96.698,11.832 96.646,11.833 96.586,11.838 96.52,11.843 96.52,11.843 96.475,11.85 
			96.431,11.857 96.392,11.871 96.357,11.884 96.325,11.9 96.296,11.918 96.272,11.942 96.252,11.962 96.238,11.987 96.227,12.012 
			96.223,12.04 96.223,12.067 96.229,12.097 96.238,12.126 96.256,12.157 96.279,12.187 96.279,12.187 96.325,12.229 96.381,12.264 
			96.443,12.293 96.513,12.318 96.586,12.342 96.661,12.367 96.737,12.395 96.811,12.424 96.879,12.463 96.943,12.511 97,12.568 
			97.049,12.639 97.085,12.726 97.107,12.829 97.117,12.953 97.107,13.097 97.107,13.097 97.092,13.204 97.064,13.299 
			97.027,13.386 96.982,13.461 96.93,13.527 96.869,13.584 96.806,13.635 96.735,13.678 96.661,13.712 96.586,13.742 96.508,13.765 
			96.429,13.783 96.35,13.797 96.275,13.804 96.199,13.809 96.129,13.811 96.129,13.811 96.029,13.811 95.938,13.809 95.859,13.809 
			95.783,13.807 95.715,13.804 95.652,13.799 95.598,13.794 95.545,13.788 95.497,13.783 95.453,13.774 95.41,13.767 95.371,13.756 
			95.332,13.746 95.296,13.732 95.259,13.72 95.22,13.704 95.322,13.2 95.322,13.2 95.344,13.204 95.369,13.212 95.4,13.22 
			95.44,13.229 95.48,13.238 95.527,13.248 95.577,13.259 95.632,13.269 95.689,13.277 95.748,13.287 95.811,13.293 95.875,13.301 
			95.94,13.303 96.008,13.305 96.073,13.305 96.141,13.303 96.141,13.303 96.206,13.289 96.259,13.271 96.301,13.246 96.332,13.214 
			96.355,13.182 96.373,13.144 96.385,13.107 96.395,13.074 96.395,13.074 96.398,13.007 96.378,12.95 96.339,12.904 96.282,12.865 
			96.213,12.831 96.133,12.797 96.044,12.765 95.955,12.729 95.863,12.688 95.776,12.639 95.696,12.58 95.623,12.509 95.565,12.421 
			95.524,12.318 95.504,12.195 95.506,12.049 95.506,12.049 95.518,11.96 95.533,11.875 95.557,11.797 95.584,11.724 95.62,11.656 
			95.661,11.596 95.71,11.539 95.768,11.489 95.834,11.445 95.906,11.408 95.988,11.375 96.08,11.349 96.184,11.328 96.296,11.312 
			96.419,11.303 96.555,11.301 96.555,11.301 96.639,11.301 96.717,11.303 96.787,11.306 96.852,11.308 96.909,11.312 
			96.961,11.317 97.007,11.321 97.049,11.326 97.088,11.331 97.119,11.337 97.148,11.342 97.177,11.347 97.199,11.351 97.22,11.354 
			97.24,11.358 97.258,11.361 97.142,11.877 		"/>
		<polygon fill-rule="evenodd" clip-rule="evenodd" fill="#FFFFFF" points="97.684,10.795 98.318,10.795 98.225,11.349 
			98.606,11.349 98.523,11.866 98.121,11.854 97.902,13.131 97.899,13.177 97.91,13.216 97.934,13.246 97.964,13.271 98.005,13.287 
			98.051,13.301 98.101,13.31 98.156,13.313 98.206,13.312 98.251,13.308 98.293,13.301 98.33,13.291 98.359,13.281 98.38,13.276 
			98.394,13.271 98.398,13.269 98.318,13.693 98.303,13.704 98.285,13.714 98.27,13.724 98.254,13.732 98.238,13.739 98.22,13.746 
			98.199,13.754 98.179,13.761 98.156,13.767 98.133,13.771 98.105,13.776 98.078,13.781 98.049,13.786 98.014,13.789 
			97.977,13.794 97.938,13.799 97.764,13.799 97.672,13.791 97.593,13.783 97.52,13.769 97.457,13.754 97.404,13.732 97.361,13.71 
			97.322,13.682 97.293,13.652 97.27,13.62 97.254,13.582 97.242,13.542 97.236,13.499 97.233,13.451 97.233,13.4 97.24,13.349 
			97.248,13.291 97.684,10.795 97.684,10.795 		"/>
		<polyline fill="none" stroke="#FFFFFF" stroke-width="0.216" stroke-miterlimit="2.6131" points="97.684,10.795 98.318,10.795 
			98.225,11.349 98.606,11.349 98.523,11.866 98.121,11.854 97.902,13.131 97.902,13.131 97.899,13.177 97.91,13.216 97.934,13.246 
			97.964,13.271 98.005,13.287 98.051,13.301 98.101,13.31 98.156,13.313 98.156,13.313 98.206,13.312 98.251,13.308 98.293,13.301 
			98.33,13.291 98.359,13.281 98.38,13.276 98.394,13.271 98.398,13.269 98.318,13.693 98.318,13.693 98.303,13.704 98.285,13.714 
			98.27,13.724 98.254,13.732 98.238,13.739 98.22,13.746 98.199,13.754 98.179,13.761 98.156,13.767 98.133,13.771 98.105,13.776 
			98.078,13.781 98.049,13.786 98.014,13.789 97.977,13.794 97.938,13.799 97.764,13.799 97.764,13.799 97.672,13.791 
			97.593,13.783 97.52,13.769 97.457,13.754 97.404,13.732 97.361,13.71 97.322,13.682 97.293,13.652 97.27,13.62 97.254,13.582 
			97.242,13.542 97.236,13.499 97.233,13.451 97.233,13.4 97.24,13.349 97.248,13.291 97.684,10.795 		"/>
		<polyline fill="none" stroke="#FFFFFF" stroke-width="0.216" stroke-miterlimit="2.6131" points="99.111,12.729 99.111,12.729 
			99.105,12.767 99.104,12.808 99.107,12.852 99.117,12.896 99.133,12.938 99.15,12.98 99.176,13.022 99.203,13.062 99.235,13.102 
			99.27,13.136 99.307,13.17 99.348,13.196 99.389,13.223 99.434,13.243 99.48,13.259 99.526,13.269 99.526,13.269 99.586,13.277 
			99.643,13.284 99.702,13.291 99.762,13.296 99.82,13.299 99.883,13.299 99.942,13.296 100.004,13.291 100.066,13.281 
			100.128,13.271 100.191,13.257 100.254,13.236 100.318,13.212 100.384,13.184 100.447,13.147 100.514,13.107 100.423,13.671 
			100.423,13.671 100.386,13.689 100.35,13.708 100.313,13.722 100.279,13.734 100.244,13.746 100.207,13.758 100.172,13.767 
			100.132,13.774 100.091,13.781 100.045,13.786 99.998,13.789 99.945,13.794 99.885,13.797 99.824,13.797 99.752,13.799 
			99.677,13.799 99.677,13.799 99.564,13.797 99.451,13.786 99.336,13.769 99.222,13.742 99.109,13.708 99.002,13.664 
			98.899,13.606 98.803,13.54 98.714,13.463 98.636,13.368 98.57,13.264 98.515,13.142 98.477,13.007 98.451,12.854 98.443,12.685 
			98.455,12.498 98.455,12.498 98.465,12.424 98.479,12.339 98.496,12.25 98.521,12.154 98.557,12.056 98.598,11.958 98.649,11.857 
			98.714,11.761 98.787,11.669 98.876,11.582 98.977,11.505 99.091,11.436 99.224,11.378 99.373,11.337 99.537,11.31 99.723,11.301 
			99.723,11.301 99.813,11.303 99.906,11.312 100,11.328 100.094,11.351 100.186,11.386 100.273,11.427 100.357,11.481 
			100.432,11.545 100.5,11.624 100.559,11.715 100.604,11.82 100.636,11.942 100.654,12.078 100.656,12.234 100.641,12.408 
			100.605,12.601 100.595,12.739 98.927,12.739 99.031,12.289 100.033,12.289 100.033,12.289 100.039,12.232 100.035,12.177 
			100.031,12.126 100.022,12.081 100.006,12.038 99.99,11.999 99.968,11.964 99.945,11.932 99.918,11.905 99.888,11.882 
			99.854,11.861 99.818,11.843 99.782,11.83 99.746,11.82 99.707,11.813 99.666,11.809 99.666,11.809 99.622,11.811 99.581,11.818 
			99.542,11.827 99.504,11.841 99.464,11.859 99.43,11.879 99.396,11.905 99.365,11.932 99.336,11.964 99.309,11.999 99.283,12.035 
			99.263,12.074 99.242,12.116 99.227,12.161 99.213,12.207 99.203,12.255 99.111,12.729 		"/>
		<polygon fill-rule="evenodd" clip-rule="evenodd" fill="#FFFFFF" points="104.568,11.486 104.538,11.47 104.509,11.456 
			104.478,11.44 104.442,11.424 104.408,11.411 104.369,11.397 104.331,11.383 104.29,11.37 104.247,11.358 104.202,11.349 
			104.154,11.34 104.107,11.333 104.054,11.328 104.001,11.324 103.946,11.324 103.889,11.324 103.832,11.324 103.772,11.328 
			103.71,11.335 103.647,11.347 103.583,11.365 103.519,11.39 103.454,11.422 103.391,11.463 103.329,11.514 103.269,11.573 
			103.211,11.646 103.157,11.731 103.107,11.832 103.059,11.946 103.016,12.074 102.979,12.221 102.965,12.302 102.956,12.383 
			102.951,12.463 102.953,12.541 102.96,12.619 102.976,12.692 102.997,12.761 103.022,12.829 103.056,12.892 103.098,12.95 
			103.146,13.003 103.2,13.05 103.262,13.093 103.333,13.127 103.411,13.156 103.498,13.177 103.527,13.184 103.563,13.191 
			103.604,13.194 103.649,13.2 103.699,13.204 103.752,13.204 103.809,13.204 103.866,13.2 103.926,13.192 103.985,13.182 
			104.043,13.165 104.1,13.147 104.157,13.121 104.209,13.093 104.257,13.055 104.304,13.015 104.2,13.625 104.187,13.637 
			104.173,13.649 104.154,13.667 104.135,13.68 104.108,13.698 104.077,13.714 104.04,13.73 103.999,13.744 103.946,13.761 
			103.887,13.771 103.818,13.781 103.738,13.789 103.649,13.794 103.546,13.797 103.429,13.794 103.301,13.788 103.196,13.776 
			103.091,13.754 102.985,13.72 102.881,13.673 102.779,13.618 102.684,13.55 102.593,13.47 102.508,13.378 102.431,13.276 
			102.368,13.161 102.313,13.032 102.271,12.893 102.244,12.739 102.234,12.577 102.239,12.399 102.265,12.209 102.283,12.116 
			102.304,12.024 102.326,11.935 102.35,11.85 102.374,11.77 102.403,11.69 102.434,11.614 102.466,11.543 102.501,11.473 
			102.535,11.406 102.573,11.342 102.614,11.283 102.656,11.225 102.702,11.17 102.747,11.12 102.796,11.072 102.849,11.026 
			102.9,10.983 102.956,10.944 103.013,10.907 103.075,10.873 103.137,10.843 103.2,10.816 103.267,10.791 103.339,10.768 
			103.408,10.75 103.481,10.733 103.561,10.72 103.638,10.708 103.72,10.699 103.802,10.695 103.889,10.692 103.963,10.695 
			104.033,10.699 104.103,10.706 104.17,10.715 104.234,10.724 104.297,10.738 104.356,10.75 104.411,10.763 104.464,10.777 
			104.509,10.791 104.553,10.805 104.589,10.818 104.621,10.829 104.648,10.838 104.67,10.848 104.683,10.853 104.568,11.486 
			104.568,11.486 		"/>
		<polyline fill="none" stroke="#FFFFFF" stroke-width="0.216" stroke-miterlimit="2.6131" points="104.568,11.486 104.568,11.486 
			104.538,11.47 104.509,11.456 104.478,11.44 104.442,11.424 104.408,11.411 104.369,11.397 104.331,11.383 104.29,11.37 
			104.247,11.358 104.202,11.349 104.154,11.34 104.107,11.333 104.054,11.328 104.001,11.324 103.946,11.324 103.889,11.324 
			103.889,11.324 103.832,11.324 103.772,11.328 103.71,11.335 103.647,11.347 103.583,11.365 103.519,11.39 103.454,11.422 
			103.391,11.463 103.329,11.514 103.269,11.573 103.211,11.646 103.157,11.731 103.107,11.832 103.059,11.946 103.016,12.074 
			102.979,12.221 102.979,12.221 102.965,12.302 102.956,12.383 102.951,12.463 102.953,12.541 102.96,12.619 102.976,12.692 
			102.997,12.761 103.022,12.829 103.056,12.892 103.098,12.95 103.146,13.003 103.2,13.05 103.262,13.093 103.333,13.127 
			103.411,13.156 103.498,13.177 103.498,13.177 103.527,13.184 103.563,13.191 103.604,13.194 103.649,13.2 103.699,13.204 
			103.752,13.204 103.809,13.204 103.866,13.2 103.926,13.192 103.985,13.182 104.043,13.165 104.1,13.147 104.157,13.121 
			104.209,13.093 104.257,13.055 104.304,13.015 104.2,13.625 104.2,13.625 104.187,13.637 104.173,13.649 104.154,13.667 
			104.135,13.68 104.108,13.698 104.077,13.714 104.04,13.73 103.999,13.744 103.946,13.761 103.887,13.771 103.818,13.781 
			103.738,13.789 103.649,13.794 103.546,13.797 103.429,13.794 103.301,13.788 103.301,13.788 103.196,13.776 103.091,13.754 
			102.985,13.72 102.881,13.673 102.779,13.618 102.684,13.55 102.593,13.47 102.508,13.378 102.431,13.276 102.368,13.161 
			102.313,13.032 102.271,12.893 102.244,12.739 102.234,12.577 102.239,12.399 102.265,12.209 102.265,12.209 102.283,12.116 
			102.304,12.024 102.326,11.935 102.35,11.85 102.374,11.77 102.403,11.69 102.434,11.614 102.466,11.543 102.501,11.473 
			102.535,11.406 102.573,11.342 102.614,11.283 102.656,11.225 102.702,11.17 102.747,11.12 102.796,11.072 102.849,11.026 
			102.9,10.983 102.956,10.944 103.013,10.907 103.075,10.873 103.137,10.843 103.2,10.816 103.267,10.791 103.339,10.768 
			103.408,10.75 103.481,10.733 103.561,10.72 103.638,10.708 103.72,10.699 103.802,10.695 103.889,10.692 103.889,10.692 
			103.963,10.695 104.033,10.699 104.103,10.706 104.17,10.715 104.234,10.724 104.297,10.738 104.356,10.75 104.411,10.763 
			104.464,10.777 104.509,10.791 104.553,10.805 104.589,10.818 104.621,10.829 104.648,10.838 104.67,10.848 104.683,10.853 
			104.568,11.486 		"/>
		<polygon fill-rule="evenodd" clip-rule="evenodd" fill="#FFFFFF" points="110.201,13.799 109.567,13.799 109.613,13.546 
			109.613,13.522 109.576,13.568 109.538,13.609 109.499,13.646 109.458,13.678 109.417,13.708 109.375,13.732 109.334,13.754 
			109.29,13.774 109.247,13.789 109.203,13.801 109.16,13.813 109.114,13.819 109.068,13.826 109.025,13.831 108.979,13.833 
			108.935,13.833 108.814,13.823 108.705,13.799 108.604,13.761 108.513,13.708 108.431,13.642 108.357,13.563 108.293,13.478 
			108.237,13.383 108.192,13.279 108.156,13.172 108.131,13.06 108.113,12.943 108.105,12.826 108.108,12.708 108.119,12.591 
			108.14,12.475 108.175,12.339 108.215,12.211 108.264,12.095 108.321,11.985 108.38,11.882 108.449,11.79 108.52,11.708 
			108.596,11.633 108.676,11.566 108.76,11.509 108.847,11.458 108.935,11.419 109.025,11.388 109.117,11.367 109.208,11.354 
			109.302,11.349 109.369,11.351 109.432,11.358 109.492,11.37 109.547,11.386 109.6,11.404 109.646,11.424 109.69,11.449 
			109.732,11.475 109.77,11.502 109.803,11.532 109.832,11.562 109.86,11.591 109.884,11.621 109.904,11.651 109.922,11.678 
			109.936,11.706 109.936,11.706 110.097,10.807 110.718,10.807 110.201,13.799 110.201,13.799 		"/>
		<polyline fill="none" stroke="#FFFFFF" stroke-width="0.216" stroke-miterlimit="2.6131" points="110.201,13.799 109.567,13.799 
			109.613,13.546 109.613,13.522 109.613,13.522 109.576,13.568 109.538,13.609 109.499,13.646 109.458,13.678 109.417,13.708 
			109.375,13.732 109.334,13.754 109.29,13.774 109.247,13.789 109.203,13.801 109.16,13.813 109.114,13.819 109.068,13.826 
			109.025,13.831 108.979,13.833 108.935,13.833 108.935,13.833 108.814,13.823 108.705,13.799 108.604,13.761 108.513,13.708 
			108.431,13.642 108.357,13.563 108.293,13.478 108.237,13.383 108.192,13.279 108.156,13.172 108.131,13.06 108.113,12.943 
			108.105,12.826 108.108,12.708 108.119,12.591 108.14,12.475 108.14,12.475 108.175,12.339 108.215,12.211 108.264,12.095 
			108.321,11.985 108.38,11.882 108.449,11.79 108.52,11.708 108.596,11.633 108.676,11.566 108.76,11.509 108.847,11.458 
			108.935,11.419 109.025,11.388 109.117,11.367 109.208,11.354 109.302,11.349 109.302,11.349 109.369,11.351 109.432,11.358 
			109.492,11.37 109.547,11.386 109.6,11.404 109.646,11.424 109.69,11.449 109.732,11.475 109.77,11.502 109.803,11.532 
			109.832,11.562 109.86,11.591 109.884,11.621 109.904,11.651 109.922,11.678 109.936,11.706 109.936,11.706 110.097,10.807 
			110.718,10.807 110.201,13.799 		"/>
		<polygon fill-rule="evenodd" clip-rule="evenodd" fill="#FBB231" points="109.165,13.246 109.229,13.241 109.289,13.227 
			109.344,13.212 109.396,13.187 109.444,13.159 109.489,13.124 109.533,13.085 109.572,13.044 109.605,12.998 109.639,12.948 
			109.668,12.896 109.693,12.841 109.716,12.783 109.735,12.724 109.75,12.662 109.763,12.601 109.773,12.537 109.78,12.47 
			109.78,12.408 109.778,12.344 109.771,12.285 109.763,12.228 109.746,12.172 109.728,12.12 109.705,12.074 109.678,12.031 
			109.648,11.994 109.613,11.962 109.574,11.935 109.533,11.917 109.489,11.905 109.441,11.9 109.38,11.905 109.322,11.914 
			109.27,11.932 109.218,11.955 109.172,11.985 109.126,12.021 109.087,12.06 109.048,12.104 109.014,12.154 108.981,12.207 
			108.951,12.261 108.927,12.321 108.903,12.383 108.886,12.445 108.867,12.511 108.854,12.577 108.842,12.679 108.847,12.788 
			108.862,12.899 108.893,13.007 108.938,13.102 108.998,13.177 109.073,13.227 109.165,13.246 109.165,13.246 		"/>
		<polygon fill-rule="evenodd" clip-rule="evenodd" fill="#FFFFFF" points="95.115,13.291 95.023,13.799 94.447,13.799 
			94.463,13.704 94.475,13.62 94.483,13.558 94.493,13.522 94.461,13.56 94.424,13.595 94.381,13.63 94.332,13.661 94.277,13.693 
			94.221,13.722 94.16,13.748 94.1,13.771 94.032,13.791 93.967,13.809 93.9,13.821 93.832,13.831 93.766,13.836 93.699,13.839 
			93.635,13.831 93.572,13.821 93.493,13.801 93.42,13.778 93.355,13.748 93.299,13.714 93.248,13.678 93.203,13.637 93.166,13.593 
			93.134,13.548 93.106,13.499 93.084,13.448 93.065,13.398 93.051,13.349 93.042,13.296 93.035,13.243 93.031,13.192 
			93.031,13.142 93.037,13.053 93.051,12.969 93.074,12.889 93.104,12.811 93.141,12.737 93.182,12.671 93.229,12.607 93.285,12.55 
			93.342,12.498 93.406,12.449 93.473,12.406 93.541,12.369 93.614,12.337 93.689,12.312 93.768,12.292 93.848,12.277 
			93.852,12.277 93.863,12.275 93.88,12.273 93.904,12.271 93.932,12.266 93.965,12.264 93.998,12.259 94.037,12.255 94.076,12.25 
			94.115,12.246 94.156,12.244 94.193,12.239 94.23,12.236 94.264,12.234 94.296,12.232 94.321,12.232 94.374,12.232 94.429,12.234 
			94.479,12.236 94.529,12.236 94.57,12.239 94.603,12.241 94.625,12.244 94.632,12.244 94.637,12.228 94.65,12.187 94.662,12.138 
			94.666,12.095 94.657,12.044 94.637,11.999 94.609,11.958 94.572,11.923 94.529,11.894 94.48,11.873 94.426,11.859 94.367,11.854 
			94.303,11.852 94.234,11.85 94.163,11.85 94.09,11.852 94.014,11.857 93.941,11.863 93.868,11.871 93.797,11.879 93.729,11.889 
			93.662,11.9 93.603,11.911 93.548,11.923 93.498,11.937 93.456,11.95 93.424,11.966 93.398,11.98 93.562,11.429 93.611,11.408 
			93.662,11.39 93.717,11.375 93.771,11.363 93.827,11.351 93.887,11.342 93.945,11.333 94.008,11.328 94.071,11.324 94.138,11.321 
			94.207,11.319 94.277,11.319 94.352,11.319 94.426,11.319 94.507,11.321 94.586,11.324 94.65,11.328 94.72,11.34 94.79,11.356 
			94.863,11.376 94.935,11.404 95.003,11.436 95.071,11.475 95.136,11.518 95.192,11.569 95.243,11.624 95.289,11.685 
			95.322,11.754 95.346,11.827 95.359,11.905 95.359,11.992 95.346,12.083 95.115,13.291 95.115,13.291 		"/>
		<polyline fill="none" stroke="#FFFFFF" stroke-width="0.216" stroke-miterlimit="2.6131" points="95.115,13.291 95.023,13.799 
			94.447,13.799 94.447,13.799 94.463,13.704 94.475,13.62 94.483,13.558 94.493,13.522 94.493,13.522 94.461,13.56 94.424,13.595 
			94.381,13.63 94.332,13.661 94.277,13.693 94.221,13.722 94.16,13.748 94.1,13.771 94.032,13.791 93.967,13.809 93.9,13.821 
			93.832,13.831 93.766,13.836 93.699,13.839 93.635,13.831 93.572,13.821 93.572,13.821 93.493,13.801 93.42,13.778 93.355,13.748 
			93.299,13.714 93.248,13.678 93.203,13.637 93.166,13.593 93.134,13.548 93.106,13.499 93.084,13.448 93.065,13.398 
			93.051,13.349 93.042,13.296 93.035,13.243 93.031,13.192 93.031,13.142 93.031,13.142 93.037,13.053 93.051,12.969 
			93.074,12.889 93.104,12.811 93.141,12.737 93.182,12.671 93.229,12.607 93.285,12.55 93.342,12.498 93.406,12.449 93.473,12.406 
			93.541,12.369 93.614,12.337 93.689,12.312 93.768,12.292 93.848,12.277 93.848,12.277 93.852,12.277 93.863,12.275 93.88,12.273 
			93.904,12.271 93.932,12.266 93.965,12.264 93.998,12.259 94.037,12.255 94.076,12.25 94.115,12.246 94.156,12.244 94.193,12.239 
			94.23,12.236 94.264,12.234 94.296,12.232 94.321,12.232 94.321,12.232 94.374,12.232 94.429,12.234 94.479,12.236 94.529,12.236 
			94.57,12.239 94.603,12.241 94.625,12.244 94.632,12.244 94.632,12.244 94.637,12.228 94.65,12.187 94.662,12.138 94.666,12.095 
			94.666,12.095 94.657,12.044 94.637,11.999 94.609,11.958 94.572,11.923 94.529,11.894 94.48,11.873 94.426,11.859 94.367,11.854 
			94.367,11.854 94.303,11.852 94.234,11.85 94.163,11.85 94.09,11.852 94.014,11.857 93.941,11.863 93.868,11.871 93.797,11.879 
			93.729,11.889 93.662,11.9 93.603,11.911 93.548,11.923 93.498,11.937 93.456,11.95 93.424,11.966 93.398,11.98 93.562,11.429 
			93.562,11.429 93.611,11.408 93.662,11.39 93.717,11.375 93.771,11.363 93.827,11.351 93.887,11.342 93.945,11.333 94.008,11.328 
			94.071,11.324 94.138,11.321 94.207,11.319 94.277,11.319 94.352,11.319 94.426,11.319 94.507,11.321 94.586,11.324 
			94.586,11.324 94.65,11.328 94.72,11.34 94.79,11.356 94.863,11.376 94.935,11.404 95.003,11.436 95.071,11.475 95.136,11.518 
			95.192,11.569 95.243,11.624 95.289,11.685 95.322,11.754 95.346,11.827 95.359,11.905 95.359,11.992 95.346,12.083 
			95.115,13.291 		"/>
		<polygon fill-rule="evenodd" clip-rule="evenodd" fill="#EC1C2E" points="94.564,12.693 94.562,12.683 94.552,12.671 
			94.538,12.664 94.516,12.66 94.49,12.655 94.461,12.652 94.426,12.652 94.393,12.652 94.355,12.655 94.316,12.66 94.28,12.664 
			94.244,12.669 94.209,12.674 94.178,12.68 94.15,12.688 94.124,12.693 94.109,12.698 94.09,12.706 94.065,12.715 94.039,12.726 
			94.01,12.739 93.98,12.756 93.948,12.771 93.918,12.79 93.887,12.813 93.856,12.836 93.829,12.863 93.805,12.892 93.781,12.921 
			93.766,12.953 93.752,12.989 93.744,13.025 93.742,13.104 93.754,13.165 93.777,13.212 93.807,13.246 93.841,13.269 93.88,13.281 
			93.916,13.289 93.953,13.291 94.021,13.289 94.083,13.281 94.143,13.272 94.195,13.259 94.241,13.243 94.285,13.223 
			94.323,13.202 94.357,13.177 94.388,13.153 94.414,13.127 94.438,13.102 94.456,13.074 94.472,13.047 94.486,13.02 94.498,12.993 
			94.504,12.969 94.522,12.902 94.538,12.826 94.552,12.754 94.564,12.693 94.564,12.693 		"/>
		<polygon fill-rule="evenodd" clip-rule="evenodd" fill="#FFFFFF" points="90.301,13.799 89.68,13.799 90.199,10.795 91.28,10.795 
			91.384,12.577 92.132,10.795 93.262,10.795 92.73,13.799 92.109,13.799 92.502,11.555 92.478,11.555 91.546,13.799 90.844,13.799 
			90.839,13.704 90.823,13.455 90.803,13.102 90.779,12.693 90.756,12.285 90.736,11.926 90.721,11.665 90.715,11.555 
			90.709,11.555 90.695,11.555 90.682,11.555 90.682,11.555 90.301,13.799 90.301,13.799 		"/>
		<polyline fill="none" stroke="#FFFFFF" stroke-width="0.216" stroke-miterlimit="2.6131" points="90.301,13.799 89.68,13.799 
			90.199,10.795 91.28,10.795 91.384,12.577 92.132,10.795 93.262,10.795 92.73,13.799 92.109,13.799 92.502,11.555 92.478,11.555 
			91.546,13.799 90.844,13.799 90.844,13.799 90.839,13.704 90.823,13.455 90.803,13.102 90.779,12.693 90.756,12.285 
			90.736,11.926 90.721,11.665 90.715,11.555 90.715,11.555 90.709,11.555 90.695,11.555 90.682,11.555 90.682,11.555 
			90.301,13.799 		"/>
		<polygon fill-rule="evenodd" clip-rule="evenodd" fill="#FFFFFF" points="106.471,13.291 106.376,13.799 105.802,13.799 
			105.807,13.704 105.809,13.623 105.809,13.562 105.813,13.534 105.784,13.568 105.749,13.603 105.708,13.635 105.662,13.667 
			105.615,13.696 105.56,13.724 105.502,13.752 105.445,13.774 105.383,13.791 105.319,13.811 105.255,13.821 105.19,13.831 
			105.125,13.836 105.061,13.839 104.998,13.831 104.937,13.821 104.854,13.801 104.782,13.778 104.717,13.748 104.657,13.714 
			104.607,13.678 104.563,13.637 104.527,13.593 104.496,13.548 104.469,13.499 104.447,13.448 104.429,13.398 104.418,13.349 
			104.408,13.296 104.401,13.243 104.396,13.192 104.396,13.142 104.401,13.053 104.416,12.969 104.436,12.889 104.466,12.811 
			104.5,12.737 104.543,12.671 104.592,12.607 104.645,12.55 104.704,12.498 104.765,12.449 104.832,12.406 104.903,12.369 
			104.974,12.337 105.049,12.312 105.125,12.292 105.202,12.277 105.207,12.277 105.219,12.275 105.234,12.273 105.257,12.271 
			105.287,12.266 105.319,12.264 105.354,12.259 105.389,12.255 105.429,12.25 105.471,12.246 105.509,12.244 105.548,12.239 
			105.585,12.236 105.616,12.234 105.648,12.232 105.674,12.232 105.729,12.232 105.784,12.234 105.837,12.236 105.887,12.236 
			105.93,12.239 105.966,12.241 105.986,12.244 105.996,12.244 106.001,12.228 106.008,12.187 106.015,12.138 106.019,12.095 
			106.01,12.044 105.991,11.999 105.962,11.958 105.928,11.923 105.887,11.894 105.839,11.873 105.787,11.859 105.732,11.854 
			105.669,11.852 105.601,11.85 105.53,11.85 105.456,11.852 105.381,11.857 105.308,11.863 105.234,11.871 105.163,11.879 
			105.095,11.889 105.028,11.9 104.969,11.911 104.914,11.923 104.864,11.937 104.822,11.95 104.791,11.966 104.765,11.98 
			104.926,11.429 104.976,11.408 105.028,11.39 105.081,11.375 105.136,11.363 105.192,11.351 105.25,11.342 105.31,11.333 
			105.372,11.328 105.436,11.324 105.502,11.321 105.568,11.319 105.64,11.319 105.71,11.319 105.784,11.319 105.861,11.321 
			105.938,11.324 106.003,11.328 106.072,11.34 106.143,11.356 106.216,11.376 106.287,11.404 106.357,11.436 106.426,11.475 
			106.49,11.518 106.548,11.569 106.601,11.624 106.646,11.685 106.681,11.754 106.705,11.827 106.722,11.905 106.722,11.992 
			106.71,12.083 106.471,13.291 106.471,13.291 		"/>
		<polygon fill-rule="evenodd" clip-rule="evenodd" fill="#FFFFFF" points="106.376,13.815 106.39,13.801 106.483,13.293 
			106.456,13.289 106.362,13.797 106.376,13.783 106.376,13.815 106.387,13.813 106.39,13.801 106.376,13.815 106.376,13.815 		"/>
		<polygon fill-rule="evenodd" clip-rule="evenodd" fill="#FFFFFF" points="105.787,13.799 105.802,13.815 106.376,13.815 
			106.376,13.783 105.802,13.783 105.816,13.799 105.787,13.799 105.786,13.815 105.802,13.815 105.787,13.799 105.787,13.799 		"/>
		<polygon fill-rule="evenodd" clip-rule="evenodd" fill="#FFFFFF" points="105.824,13.542 105.804,13.525 105.795,13.562 
			105.792,13.623 105.792,13.704 105.787,13.799 105.816,13.799 105.819,13.704 105.824,13.623 105.822,13.562 105.822,13.542 
			105.802,13.525 105.824,13.542 105.824,13.542 		"/>
		<polygon fill-rule="evenodd" clip-rule="evenodd" fill="#FFFFFF" points="104.935,13.836 104.935,13.836 104.998,13.846 
			105.061,13.852 105.125,13.85 105.19,13.846 105.257,13.836 105.321,13.823 105.386,13.807 105.449,13.788 105.506,13.765 
			105.565,13.736 105.621,13.71 105.669,13.678 105.717,13.646 105.759,13.614 105.795,13.577 105.824,13.542 105.802,13.525 
			105.772,13.56 105.74,13.591 105.699,13.623 105.655,13.655 105.607,13.682 105.553,13.71 105.498,13.736 105.44,13.761 
			105.381,13.778 105.316,13.797 105.252,13.809 105.19,13.817 105.125,13.821 105.061,13.823 104.998,13.817 104.939,13.809 
			104.939,13.809 104.935,13.836 104.935,13.836 		"/>
		<polygon fill-rule="evenodd" clip-rule="evenodd" fill="#FFFFFF" points="104.381,13.142 104.381,13.142 104.384,13.192 
			104.389,13.243 104.395,13.299 104.404,13.351 104.416,13.4 104.434,13.453 104.454,13.506 104.483,13.555 104.516,13.603 
			104.553,13.646 104.598,13.689 104.65,13.726 104.71,13.763 104.777,13.791 104.852,13.815 104.935,13.836 104.939,13.809 
			104.856,13.788 104.786,13.765 104.725,13.734 104.665,13.703 104.617,13.667 104.575,13.627 104.538,13.584 104.507,13.54 
			104.481,13.493 104.461,13.444 104.442,13.396 104.432,13.346 104.422,13.293 104.416,13.243 104.411,13.192 104.413,13.142 
			104.413,13.142 104.381,13.142 104.381,13.142 		"/>
		<polygon fill-rule="evenodd" clip-rule="evenodd" fill="#FFFFFF" points="105.202,12.264 105.202,12.264 105.122,12.277 
			105.045,12.298 104.969,12.323 104.896,12.355 104.824,12.392 104.757,12.438 104.694,12.486 104.635,12.541 104.58,12.598 
			104.532,12.662 104.486,12.73 104.451,12.807 104.422,12.884 104.401,12.966 104.389,13.053 104.381,13.142 104.413,13.142 
			104.416,13.053 104.429,12.971 104.449,12.893 104.479,12.815 104.514,12.744 104.555,12.68 104.603,12.616 104.652,12.559 
			104.712,12.509 104.774,12.46 104.838,12.419 104.909,12.383 104.979,12.351 105.054,12.326 105.127,12.305 105.202,12.292 
			105.202,12.292 105.202,12.264 105.202,12.264 		"/>
		<polygon fill-rule="evenodd" clip-rule="evenodd" fill="#FFFFFF" points="105.674,12.216 105.674,12.216 105.648,12.216 
			105.616,12.221 105.585,12.223 105.548,12.225 105.509,12.229 105.471,12.232 105.429,12.236 105.389,12.241 105.354,12.246 
			105.319,12.25 105.287,12.252 105.257,12.257 105.234,12.259 105.216,12.261 105.207,12.264 105.202,12.264 105.202,12.292 
			105.207,12.292 105.22,12.289 105.234,12.287 105.257,12.285 105.287,12.28 105.319,12.277 105.354,12.273 105.389,12.269 
			105.429,12.264 105.471,12.259 105.509,12.257 105.548,12.252 105.585,12.25 105.616,12.248 105.648,12.248 105.674,12.248 
			105.674,12.248 105.674,12.216 105.674,12.216 		"/>
		<polygon fill-rule="evenodd" clip-rule="evenodd" fill="#FFFFFF" points="105.982,12.241 105.996,12.229 105.986,12.229 
			105.966,12.228 105.93,12.225 105.887,12.221 105.837,12.221 105.784,12.221 105.729,12.216 105.674,12.216 105.674,12.248 
			105.729,12.248 105.784,12.248 105.837,12.252 105.887,12.252 105.93,12.252 105.966,12.255 105.986,12.257 105.996,12.257 
			106.01,12.246 105.996,12.257 106.008,12.259 106.01,12.246 105.982,12.241 105.982,12.241 		"/>
		<polygon fill-rule="evenodd" clip-rule="evenodd" fill="#FFFFFF" points="106.006,12.095 106.003,12.095 106.001,12.138 
			105.993,12.184 105.986,12.225 105.982,12.241 106.01,12.246 106.015,12.229 106.021,12.188 106.028,12.138 106.035,12.095 
			106.033,12.095 106.006,12.095 106.006,12.095 		"/>
		<polygon fill-rule="evenodd" clip-rule="evenodd" fill="#FFFFFF" points="105.732,11.868 105.732,11.871 105.786,11.873 
			105.834,11.887 105.879,11.907 105.919,11.935 105.95,11.966 105.978,12.005 105.996,12.046 106.006,12.095 106.033,12.095 
			106.023,12.042 106.006,11.992 105.974,11.948 105.937,11.911 105.894,11.879 105.843,11.859 105.79,11.846 105.732,11.838 
			105.732,11.841 105.732,11.868 105.732,11.868 		"/>
		<polygon fill-rule="evenodd" clip-rule="evenodd" fill="#FFFFFF" points="104.752,11.978 104.774,11.992 104.797,11.98 
			104.827,11.964 104.866,11.95 104.916,11.937 104.972,11.926 105.03,11.914 105.097,11.903 105.163,11.894 105.234,11.884 
			105.308,11.877 105.381,11.871 105.456,11.866 105.53,11.866 105.601,11.866 105.669,11.866 105.732,11.868 105.732,11.841 
			105.669,11.838 105.601,11.833 105.53,11.833 105.456,11.838 105.381,11.843 105.308,11.85 105.234,11.857 105.163,11.866 
			105.093,11.875 105.025,11.887 104.967,11.898 104.911,11.91 104.861,11.923 104.818,11.937 104.784,11.953 104.757,11.969 
			104.779,11.982 104.752,11.978 104.752,11.978 		"/>
		<polygon fill-rule="evenodd" clip-rule="evenodd" fill="#FFFFFF" points="104.921,11.415 104.911,11.427 104.752,11.978 
			104.779,11.982 104.939,11.431 104.931,11.443 104.921,11.415 104.914,11.417 104.911,11.427 104.921,11.415 104.921,11.415 		"/>
		<polygon fill-rule="evenodd" clip-rule="evenodd" fill="#FFFFFF" points="105.938,11.31 105.938,11.31 105.861,11.306 
			105.784,11.303 105.71,11.303 105.64,11.303 105.568,11.303 105.502,11.308 105.436,11.31 105.372,11.315 105.31,11.319 
			105.247,11.328 105.19,11.337 105.134,11.349 105.078,11.361 105.023,11.376 104.972,11.395 104.921,11.415 104.931,11.443 
			104.98,11.422 105.033,11.404 105.083,11.388 105.138,11.376 105.195,11.365 105.252,11.356 105.31,11.347 105.372,11.342 
			105.436,11.337 105.502,11.335 105.568,11.335 105.64,11.335 105.71,11.335 105.784,11.335 105.861,11.337 105.938,11.337 
			105.938,11.337 105.938,11.31 105.938,11.31 		"/>
		<polygon fill-rule="evenodd" clip-rule="evenodd" fill="#FFFFFF" points="106.725,12.085 106.725,12.085 106.735,11.992 
			106.735,11.905 106.72,11.824 106.694,11.749 106.657,11.678 106.611,11.614 106.557,11.557 106.499,11.506 106.434,11.463 
			106.364,11.422 106.292,11.39 106.22,11.363 106.146,11.342 106.073,11.326 106.003,11.315 105.938,11.31 105.938,11.337 
			106.003,11.342 106.069,11.354 106.141,11.37 106.211,11.39 106.282,11.417 106.351,11.449 106.419,11.486 106.481,11.53 
			106.538,11.58 106.588,11.633 106.635,11.691 106.667,11.759 106.691,11.83 106.708,11.905 106.708,11.992 106.696,12.081 
			106.696,12.081 106.725,12.085 106.725,12.085 		"/>
		<polygon fill-rule="evenodd" clip-rule="evenodd" fill="#FFFFFF" points="106.483,13.293 106.483,13.293 106.725,12.085 
			106.696,12.081 106.456,13.289 106.456,13.289 106.483,13.293 106.483,13.293 		"/>
		<polygon fill-rule="evenodd" clip-rule="evenodd" fill="#FBB231" points="105.916,12.693 105.911,12.68 105.902,12.669 
			105.887,12.662 105.864,12.655 105.839,12.652 105.809,12.65 105.774,12.65 105.74,12.652 105.703,12.657 105.667,12.662 
			105.63,12.667 105.596,12.671 105.562,12.679 105.531,12.683 105.502,12.689 105.479,12.693 105.464,12.696 105.445,12.703 
			105.422,12.71 105.396,12.72 105.366,12.732 105.34,12.747 105.308,12.763 105.277,12.783 105.247,12.804 105.219,12.829 
			105.192,12.854 105.168,12.884 105.147,12.916 105.132,12.95 105.118,12.987 105.11,13.025 105.108,13.104 105.119,13.165 
			105.138,13.212 105.165,13.246 105.2,13.269 105.239,13.281 105.277,13.289 105.316,13.291 105.386,13.289 105.449,13.281 
			105.509,13.271 105.562,13.255 105.612,13.236 105.655,13.216 105.696,13.192 105.732,13.165 105.765,13.14 105.792,13.11 
			105.817,13.083 105.839,13.053 105.854,13.025 105.866,12.998 105.875,12.971 105.882,12.946 105.892,12.882 105.902,12.815 
			105.911,12.751 105.916,12.693 105.916,12.693 		"/>
		<polygon fill-rule="evenodd" clip-rule="evenodd" fill="#FFFFFF" points="110.628,13.485 110.634,13.433 110.652,13.371 
			110.684,13.316 110.723,13.269 110.771,13.229 110.826,13.202 110.885,13.184 110.949,13.177 111.014,13.184 111.073,13.202 
			111.128,13.229 111.176,13.269 111.215,13.316 111.247,13.371 111.265,13.433 111.271,13.485 111.201,13.485 111.198,13.444 
			111.185,13.394 111.162,13.349 111.133,13.31 111.096,13.277 111.053,13.255 111.002,13.238 110.949,13.234 110.897,13.238 
			110.847,13.255 110.803,13.277 110.767,13.31 110.737,13.349 110.714,13.394 110.7,13.444 110.695,13.485 110.628,13.485 
			110.628,13.485 		"/>
		<polygon fill-rule="evenodd" clip-rule="evenodd" fill="#FFFFFF" points="110.835,13.485 110.835,13.349 110.961,13.349 
			110.988,13.351 111.014,13.355 111.031,13.362 111.048,13.371 111.059,13.386 111.068,13.398 111.073,13.415 111.075,13.431 
			111.073,13.451 111.068,13.467 111.062,13.481 111.057,13.485 110.961,13.485 110.97,13.483 110.986,13.481 110.999,13.477 
			111.012,13.473 111.021,13.465 111.025,13.458 111.029,13.447 111.029,13.431 111.026,13.419 111.022,13.41 111.017,13.406 
			111.009,13.4 110.997,13.398 110.986,13.396 110.975,13.396 110.961,13.396 110.893,13.396 110.893,13.485 110.835,13.485 
			110.835,13.485 		"/>
		<polygon fill-rule="evenodd" clip-rule="evenodd" fill="#FFFFFF" points="110.628,13.485 110.627,13.499 110.634,13.565 
			110.652,13.627 110.684,13.682 110.723,13.729 110.771,13.767 110.826,13.797 110.885,13.815 110.949,13.821 111.014,13.815 
			111.073,13.797 111.128,13.767 111.176,13.729 111.215,13.682 111.247,13.627 111.265,13.565 111.271,13.499 111.271,13.485 
			111.201,13.485 111.203,13.499 111.198,13.555 111.185,13.604 111.162,13.647 111.133,13.687 111.096,13.72 111.053,13.744 
			111.002,13.761 110.949,13.765 110.897,13.761 110.847,13.744 110.803,13.72 110.767,13.687 110.737,13.647 110.714,13.604 
			110.7,13.555 110.695,13.499 110.695,13.485 110.628,13.485 110.628,13.485 		"/>
		<polygon fill-rule="evenodd" clip-rule="evenodd" fill="#FFFFFF" points="110.835,13.485 110.835,13.625 110.893,13.625 
			110.893,13.511 110.949,13.511 111.018,13.625 111.063,13.625 110.996,13.511 111.012,13.511 111.026,13.506 111.041,13.502 
			111.053,13.493 111.057,13.485 110.961,13.485 110.949,13.487 110.893,13.487 110.893,13.485 110.835,13.485 110.835,13.485 		"/>
		<path fill="none" stroke="#FFFFFF" stroke-width="0.216" stroke-miterlimit="2.6131" d="M110.627,13.499L110.627,13.499
			l0.007-0.066l0.019-0.062l0.031-0.055l0.039-0.048l0.048-0.039l0.056-0.027l0.059-0.019l0.064-0.007l0,0l0.064,0.007l0.06,0.019
			l0.055,0.027l0.048,0.039l0.039,0.048l0.032,0.055l0.018,0.062l0.007,0.066l0,0l-0.007,0.066l-0.018,0.062l-0.032,0.055
			l-0.039,0.047l-0.048,0.038l-0.055,0.03l-0.06,0.019l-0.064,0.006l0,0l-0.064-0.006l-0.059-0.019l-0.056-0.03l-0.048-0.038
			l-0.039-0.047l-0.031-0.055l-0.019-0.062L110.627,13.499 M110.893,13.625h-0.058v-0.276h0.126l0,0l0.027,0.002l0.025,0.005
			l0.018,0.007l0.017,0.009l0.011,0.015l0.01,0.013l0.005,0.017l0.002,0.016l0,0l-0.002,0.021l-0.005,0.016l-0.007,0.015
			l-0.009,0.012l-0.012,0.009l-0.015,0.004l-0.015,0.005h-0.016l0.067,0.114h-0.046l-0.068-0.114h-0.057V13.625 M110.949,13.487
			L110.949,13.487l0.021-0.004l0.017-0.002l0.013-0.005l0.013-0.004l0.009-0.008l0.005-0.007l0.004-0.011v-0.017l0,0l-0.003-0.012
			l-0.004-0.009l-0.006-0.004l-0.008-0.006l-0.012-0.002l-0.011-0.002h-0.012h-0.014h-0.068v0.091H110.949 M110.949,13.765
			L110.949,13.765l0.053-0.004l0.051-0.017l0.043-0.024l0.037-0.033l0.029-0.039l0.022-0.043l0.014-0.05l0.005-0.056l0,0
			l-0.005-0.055l-0.014-0.051l-0.022-0.045l-0.029-0.039l-0.037-0.032l-0.043-0.022l-0.051-0.017l-0.053-0.004l0,0l-0.052,0.004
			l-0.051,0.017l-0.044,0.022l-0.036,0.032l-0.029,0.039l-0.023,0.045l-0.014,0.051l-0.005,0.055l0,0l0.005,0.056l0.014,0.05
			l0.023,0.043l0.029,0.039l0.036,0.033l0.044,0.024l0.051,0.017L110.949,13.765"/>
		<polygon fill-rule="evenodd" clip-rule="evenodd" fill="#FFFFFF" points="106.642,13.799 107.287,13.799 107.287,13.799 
			107.519,12.498 107.526,12.447 107.541,12.396 107.554,12.346 107.573,12.296 107.596,12.246 107.623,12.198 107.653,12.152 
			107.689,12.108 107.73,12.07 107.776,12.033 107.829,11.999 107.889,11.971 107.954,11.948 108.028,11.93 108.108,11.917 
			108.197,11.911 108.229,11.911 108.247,11.911 108.254,11.911 108.254,11.911 108.357,11.324 108.293,11.328 108.231,11.335 
			108.175,11.347 108.119,11.363 108.068,11.38 108.021,11.404 107.976,11.429 107.932,11.456 107.891,11.489 107.852,11.52 
			107.814,11.557 107.779,11.593 107.744,11.633 107.71,11.676 107.676,11.717 107.644,11.763 107.713,11.349 107.068,11.349 
			106.642,13.799 106.642,13.799 106.642,13.799 		"/>
		<polyline fill="none" stroke="#FFFFFF" stroke-width="0.216" stroke-miterlimit="2.6131" points="106.642,13.799 107.287,13.799 
			107.287,13.799 107.519,12.498 107.519,12.498 107.526,12.447 107.541,12.396 107.554,12.346 107.573,12.296 107.596,12.246 
			107.623,12.198 107.653,12.152 107.689,12.108 107.73,12.07 107.776,12.033 107.829,11.999 107.889,11.971 107.954,11.948 
			108.028,11.93 108.108,11.917 108.197,11.911 108.197,11.911 108.229,11.911 108.247,11.911 108.254,11.911 108.254,11.911 
			108.357,11.324 108.357,11.324 108.293,11.328 108.231,11.335 108.175,11.347 108.119,11.363 108.068,11.38 108.021,11.404 
			107.976,11.429 107.932,11.456 107.891,11.489 107.852,11.52 107.814,11.557 107.779,11.593 107.744,11.633 107.71,11.676 
			107.676,11.717 107.644,11.763 107.713,11.349 107.068,11.349 106.642,13.799 106.642,13.799 		"/>
		<polygon fill-rule="evenodd" clip-rule="evenodd" fill="#FFFFFF" points="100.584,13.799 101.229,13.799 101.24,13.799 
			101.459,12.498 101.469,12.447 101.48,12.399 101.491,12.351 101.508,12.305 101.525,12.259 101.549,12.216 101.576,12.174 
			101.607,12.136 101.645,12.102 101.686,12.067 101.736,12.04 101.791,12.015 101.855,11.994 101.926,11.976 102.004,11.964 
			102.094,11.958 102.1,11.958 102.109,11.96 102.121,11.962 102.132,11.962 102.145,11.964 102.152,11.966 102.159,11.969 
			102.162,11.969 102.164,11.96 102.172,11.932 102.18,11.891 102.192,11.841 102.207,11.781 102.223,11.717 102.244,11.653 
			102.265,11.589 102.283,11.545 102.307,11.502 102.329,11.458 102.352,11.419 102.371,11.386 102.389,11.358 102.4,11.342 
			102.403,11.335 102.402,11.335 102.394,11.333 102.382,11.331 102.366,11.328 102.35,11.328 102.331,11.326 102.314,11.324 
			102.299,11.324 102.229,11.328 102.164,11.335 102.104,11.347 102.05,11.361 101.998,11.378 101.949,11.402 101.905,11.424 
			101.865,11.452 101.826,11.481 101.789,11.516 101.754,11.55 101.721,11.589 101.686,11.628 101.654,11.672 101.619,11.717 
			101.585,11.763 101.667,11.349 101.011,11.349 100.584,13.799 100.584,13.799 100.584,13.799 		"/>
		<polyline fill="none" stroke="#FFFFFF" stroke-width="0.216" stroke-miterlimit="2.6131" points="100.584,13.799 101.229,13.799 
			101.24,13.799 101.459,12.498 101.459,12.498 101.469,12.447 101.48,12.399 101.491,12.351 101.508,12.305 101.525,12.259 
			101.549,12.216 101.576,12.174 101.607,12.136 101.645,12.102 101.686,12.067 101.736,12.04 101.791,12.015 101.855,11.994 
			101.926,11.976 102.004,11.964 102.094,11.958 102.094,11.958 102.1,11.958 102.109,11.96 102.121,11.962 102.132,11.962 
			102.145,11.964 102.152,11.966 102.159,11.969 102.162,11.969 102.162,11.969 102.164,11.96 102.172,11.932 102.18,11.891 
			102.192,11.841 102.207,11.781 102.223,11.717 102.244,11.653 102.265,11.589 102.265,11.589 102.283,11.545 102.307,11.502 
			102.329,11.458 102.352,11.419 102.371,11.386 102.389,11.358 102.4,11.342 102.403,11.335 102.403,11.335 102.402,11.335 
			102.394,11.333 102.382,11.331 102.366,11.328 102.35,11.328 102.331,11.326 102.314,11.324 102.299,11.324 102.299,11.324 
			102.229,11.328 102.164,11.335 102.104,11.347 102.05,11.361 101.998,11.378 101.949,11.402 101.905,11.424 101.865,11.452 
			101.826,11.481 101.789,11.516 101.754,11.55 101.721,11.589 101.686,11.628 101.654,11.672 101.619,11.717 101.585,11.763 
			101.667,11.349 101.011,11.349 100.584,13.799 100.584,13.799 		"/>
		<polygon fill-rule="evenodd" clip-rule="evenodd" fill="#FBB231" points="110.634,16.206 110.634,16.197 110.652,16.137 
			110.684,16.085 110.723,16.038 110.771,16.003 110.826,15.975 110.885,15.959 110.949,15.952 111.014,15.959 111.073,15.975 
			111.128,16.003 111.176,16.038 111.215,16.085 111.247,16.137 111.265,16.197 111.265,16.206 111.198,16.206 111.185,16.157 
			111.162,16.114 111.133,16.075 111.096,16.044 111.053,16.018 111.002,16.003 110.949,15.998 110.897,16.003 110.847,16.018 
			110.803,16.044 110.767,16.075 110.737,16.114 110.714,16.157 110.7,16.206 110.634,16.206 110.634,16.206 		"/>
		<polygon fill-rule="evenodd" clip-rule="evenodd" fill="#FBB231" points="110.835,16.206 110.835,16.126 110.961,16.126 
			110.988,16.126 111.014,16.131 111.031,16.135 111.048,16.145 111.059,16.155 111.068,16.169 111.073,16.186 111.075,16.206 
			111.029,16.206 111.029,16.194 111.026,16.183 111.022,16.175 111.017,16.169 111.009,16.165 110.997,16.162 110.986,16.16 
			110.975,16.16 110.961,16.16 110.893,16.16 110.893,16.206 110.835,16.206 110.835,16.206 		"/>
		<polygon fill-rule="evenodd" clip-rule="evenodd" fill="#FBB231" points="110.627,16.256 110.634,16.206 110.7,16.206 
			110.7,16.209 110.695,16.256 110.627,16.256 110.627,16.256 		"/>
		<polygon fill-rule="evenodd" clip-rule="evenodd" fill="#FBB231" points="110.835,16.256 110.835,16.206 110.893,16.206 
			110.893,16.252 110.949,16.252 110.97,16.247 110.986,16.244 110.999,16.24 111.012,16.235 111.021,16.229 111.025,16.222 
			111.029,16.21 111.029,16.206 111.075,16.206 111.075,16.206 111.073,16.222 111.068,16.235 111.062,16.247 111.053,16.256 
			110.835,16.256 110.835,16.256 		"/>
		<polygon fill-rule="evenodd" clip-rule="evenodd" fill="#FBB231" points="111.203,16.256 111.198,16.209 111.198,16.206 
			111.265,16.206 111.271,16.256 111.203,16.256 111.203,16.256 		"/>
		<polygon fill-rule="evenodd" clip-rule="evenodd" fill="#FBB231" points="110.627,16.256 110.627,16.264 110.634,16.329 
			110.652,16.392 110.684,16.446 110.723,16.494 110.771,16.533 110.826,16.56 110.885,16.579 110.949,16.586 111.014,16.579 
			111.073,16.56 111.128,16.533 111.176,16.494 111.215,16.446 111.247,16.392 111.265,16.329 111.271,16.264 111.271,16.256 
			111.203,16.256 111.203,16.264 111.198,16.318 111.185,16.369 111.162,16.411 111.133,16.45 111.096,16.482 111.053,16.508 
			111.002,16.523 110.949,16.528 110.897,16.523 110.847,16.508 110.803,16.482 110.767,16.45 110.737,16.411 110.714,16.369 
			110.7,16.318 110.695,16.264 110.695,16.256 110.627,16.256 110.627,16.256 		"/>
		<polygon fill-rule="evenodd" clip-rule="evenodd" fill="#FBB231" points="110.835,16.256 110.835,16.389 110.893,16.389 
			110.893,16.274 110.949,16.274 111.018,16.389 111.063,16.389 110.996,16.274 111.012,16.274 111.026,16.27 111.041,16.266 
			111.053,16.256 111.053,16.256 110.835,16.256 110.835,16.256 		"/>
		<path fill-rule="evenodd" clip-rule="evenodd" fill="#FFFFFF" d="M100.654,12.078l-0.019-0.136l-0.032-0.122l-0.045-0.104
			l-0.059-0.092l-0.068-0.078l-0.074-0.064l-0.084-0.055l-0.088-0.041l-0.092-0.035L100,11.328l-0.094-0.016l-0.094-0.009
			l-0.09-0.002l-0.186,0.009l-0.164,0.027l-0.149,0.041l-0.133,0.057l-0.114,0.069l-0.101,0.077l-0.089,0.087l-0.073,0.092
			l-0.064,0.096l-0.052,0.101l-0.041,0.099l-0.035,0.098l-0.025,0.097l-0.018,0.089l-0.014,0.084l-0.01,0.074l-0.012,0.187
			l0.008,0.169l0.025,0.153l0.038,0.135l0.056,0.122l0.065,0.104l0.078,0.095l0.089,0.077l0.097,0.066l0.103,0.058l0.107,0.044
			l0.112,0.034l0.114,0.026l0.115,0.018l0.113,0.011l0.112,0.002h0.075l0.072-0.002h0.061l0.061-0.003l0.053-0.005l0.047-0.003
			l0.046-0.005l0.041-0.007l0.04-0.008l0.035-0.009l0.037-0.012l0.035-0.012l0.033-0.013l0.037-0.014l0.036-0.019l0.037-0.019
			l0.091-0.563l-0.066,0.04l-0.063,0.036l-0.065,0.028l-0.064,0.024l-0.063,0.021l-0.063,0.014l-0.062,0.011l-0.063,0.01
			l-0.062,0.005l-0.06,0.003H99.82l-0.059-0.003l-0.06-0.005l-0.06-0.007l-0.057-0.007l-0.06-0.009l-0.046-0.01l-0.047-0.016
			l-0.045-0.021l-0.041-0.026l-0.041-0.026l-0.037-0.034l-0.034-0.034l-0.032-0.04l-0.027-0.039L99.15,12.98l-0.018-0.042
			l-0.016-0.043l-0.01-0.044l-0.004-0.044l0.002-0.038l0.005-0.03h1.484l0.011-0.139l0.035-0.193l0.016-0.174L100.654,12.078z
			 M100.033,12.289h-0.836l0.002-0.001h-0.002l0.006-0.032l0.01-0.048l0.014-0.046l0.016-0.045l0.021-0.042l0.021-0.039l0.025-0.037
			l0.027-0.035l0.029-0.032l0.03-0.027l0.034-0.025l0.034-0.021l0.04-0.018l0.038-0.014l0.039-0.009l0.041-0.007l0.044-0.002
			l0.041,0.005l0.039,0.006l0.036,0.01l0.036,0.013l0.035,0.018l0.034,0.021l0.03,0.023l0.027,0.027l0.022,0.032l0.022,0.035
			l0.016,0.039l0.017,0.043l0.009,0.045l0.004,0.05l0.004,0.055L100.033,12.289z"/>
	</g>
</g>
<g>
	<path fill="#FFFFFF" d="M160,22.649c0,0.696-0.564,1.26-1.26,1.26h-35.285c-0.695,0-1.26-0.563-1.26-1.26V1.542
		c0-0.696,0.564-1.26,1.26-1.26h35.285c0.695,0,1.26,0.563,1.26,1.26V22.649z"/>
	<g>
		<path fill="#FFFFFF" d="M133.926,11.545v-0.378l-0.182,0.378h-1.564l-0.197-0.405v0.405h-2.925l-0.347-0.818h-0.586l-0.365,0.818
			h-1.518v-2.47l1.112-2.516h2.129l0.3,0.713V6.564h2.604l0.572,1.2l0.56-1.206h8.222c0,0,0.43-0.006,0.713,0.194V6.559h2.07v0.273
			c0,0,0.372-0.273,0.923-0.273s3.654,0,3.654,0l0.321,0.724V6.559h2.341l0.425,0.724V6.559h2.24v4.991h-2.3l-0.541-0.87v0.865
			h-2.858l-0.402-0.892h-0.561l-0.378,0.892h-1.729c0,0-0.645-0.009-1.129-0.354c0,0.181,0,0.354,0,0.354h-3.443
			c0,0,0-0.994,0-1.165c0-0.169-0.13-0.156-0.13-0.156h-0.126v1.321H133.926z"/>
		<path fill="#FFFFFF" d="M132.207,12.626h4.525l0.652,0.739l0.669-0.739h3.479c0,0,0.327,0.009,0.637,0.174v-0.174
			c0,0,2.706,0,3.099,0c0.394,0,0.724,0.196,0.724,0.196v-0.196h3.984v0.182c0,0,0.282-0.182,0.664-0.182c0.381,0,2.596,0,2.596,0
			v0.182c0,0,0.326-0.182,0.672-0.182s2.036,0,2.036,0v4.703c0,0-0.267,0.304-0.822,0.304h-2.685v-0.149
			c0,0-0.255,0.149-0.646,0.149c-0.389,0-7.135,0-7.135,0s0-1.096,0-1.217c0-0.119-0.053-0.141-0.158-0.141H144.4v1.357h-2.23
			v-1.349c0,0-0.247,0.132-0.66,0.132s-0.803,0-0.803,0v1.217h-2.748l-0.625-0.764l-0.668,0.764h-4.459V12.626z"/>
		<polygon fill="#0078A9" points="146.471,13.377 149.311,13.377 149.311,14.139 147.341,14.139 147.341,14.803 149.255,14.803 
			149.255,15.474 147.341,15.474 147.341,16.173 149.311,16.173 149.311,16.916 146.471,16.916 		"/>
		<path fill="#0078A9" d="M154.798,14.756c1.067,0.055,1.156,0.588,1.156,1.156c0,0.663-0.545,1.019-1.113,1.019h-1.825v-0.758
			h1.422c0.241,0,0.6,0,0.6-0.34c0-0.162-0.063-0.265-0.318-0.292c-0.114-0.016-0.537-0.04-0.601-0.041
			c-0.966-0.025-1.189-0.505-1.189-1.089c0-0.663,0.466-1.025,1.036-1.025h1.824v0.758h-1.335c-0.305,0.003-0.632-0.036-0.632,0.307
			c0,0.218,0.161,0.261,0.367,0.28C154.261,14.73,154.733,14.757,154.798,14.756z"/>
		<path fill="#0078A9" d="M151.527,14.756c1.067,0.055,1.157,0.588,1.157,1.156c0,0.663-0.546,1.019-1.114,1.019h-1.825v-0.758
			h1.422c0.241,0,0.602,0,0.602-0.34c0-0.162-0.064-0.265-0.321-0.292c-0.115-0.016-0.536-0.04-0.601-0.041
			c-0.964-0.025-1.188-0.505-1.188-1.089c0-0.663,0.465-1.025,1.035-1.025h1.824v0.758h-1.335c-0.305,0.003-0.633-0.036-0.633,0.307
			c0,0.218,0.162,0.261,0.368,0.28C150.989,14.73,151.464,14.757,151.527,14.756z"/>
		<path fill="#0078A9" d="M141.227,13.385h-3.051l-0.994,1.098l-0.963-1.105h-3.424v3.539h3.313l1.042-1.17l1.019,1.177h1.667v-1.2
			h1.169c0.45,0,1.272-0.016,1.272-1.256C142.277,13.582,141.652,13.385,141.227,13.385z M135.653,16.173h-2.001v-0.699h1.914
			v-0.671h-1.914v-0.664l2.111,0.005l0.846,0.963L135.653,16.173z M138.975,16.583l-1.248-1.477l1.248-1.382V16.583z
			 M140.934,14.993h-1.082v-0.85h1.086c0.363,0,0.478,0.233,0.478,0.407C141.415,14.787,141.289,14.993,140.934,14.993z"/>
		<path fill="#0078A9" d="M145.422,15.312c0.475-0.236,0.601-0.553,0.601-0.979c0-0.758-0.615-0.946-1.042-0.946h-2.259v3.537h0.868
			v-1.248h1.138c0.3,0,0.419,0.301,0.426,0.601l0.025,0.647h0.844l-0.03-0.727C145.992,15.627,145.834,15.358,145.422,15.312z
			 M144.672,14.945h-1.082v-0.802h1.086c0.364,0,0.478,0.233,0.478,0.407C145.153,14.787,145.027,14.945,144.672,14.945z"/>
		<rect x="143.068" y="7.268" fill="#0078A9" width="0.87" height="3.542"/>
		<polygon fill="#0078A9" points="135.957,7.271 138.797,7.271 138.797,8.033 136.827,8.033 136.827,8.697 138.742,8.697 
			138.742,9.369 136.827,9.369 136.827,10.067 138.797,10.067 138.797,10.81 135.957,10.81 		"/>
		<path fill="#0078A9" d="M142.015,9.199c0.474-0.236,0.601-0.553,0.601-0.979c0-0.758-0.617-0.948-1.043-0.948h-2.26v3.539h0.869
			V9.562h1.137c0.301,0,0.42,0.3,0.427,0.601l0.024,0.647h0.846l-0.031-0.727C142.584,9.515,142.426,9.247,142.015,9.199z
			 M141.264,8.832h-1.082V8.031h1.086c0.363,0,0.478,0.233,0.478,0.407C141.745,8.674,141.619,8.832,141.264,8.832z"/>
		<path fill="#0078A9" d="M133.954,7.271l-1.065,2.374l-1.063-2.374h-1.363v3.408l-1.517-3.408h-1.148l-1.548,3.539h0.916
			l0.338-0.79h1.734l0.344,0.79h1.75V8.184l1.16,2.626h0.791l1.188-2.583v2.583h0.868V7.271H133.954z M127.833,9.257l0.519-1.237
			l0.54,1.237H127.833z"/>
		<path fill="#0078A9" d="M152.903,7.271V9.72l-1.465-2.449h-1.283v3.323l-1.48-3.322h-1.15l-1.196,2.741c0,0-0.506,0-0.557-0.012
			c-0.21-0.042-0.536-0.19-0.541-0.815V8.929c0-0.829,0.45-0.89,1.028-0.89h0.536V7.271h-1.135c-0.395,0-1.254,0.301-1.282,1.754
			c-0.021,0.98,0.405,1.787,1.369,1.787h1.146l0.34-0.79h1.734l0.343,0.79h1.714V8.22l1.563,2.592h1.186V7.271H152.903z
			 M147.567,9.259l0.518-1.237l0.545,1.237H147.567z"/>
	</g>
</g>
</svg>
